<svg xmlns="http://www.w3.org/2000/svg"  viewBox="0 0 100 100" width="50px" height="50px"><path d="M 23.525391 7.9726562 A 2.0002 2.0002 0 0 0 21.554688 10 L 21.554688 86 A 2.0002 2.0002 0 0 0 23.992188 87.951172 L 42.353516 83.84375 A 2.0002 2.0002 0 0 0 43.917969 81.892578 L 43.917969 59.474609 C 46.970135 67.138098 49.911991 74.832134 52.701172 82.570312 A 2.0002 2.0002 0 0 0 54.173828 83.849609 L 73.476562 87.882812 A 2.0002 2.0002 0 0 0 76.236328 86.058594 L 78.439453 10.058594 A 2.0002 2.0002 0 0 0 76.441406 8 L 59.240234 8 A 2.0002 2.0002 0 0 0 57.242188 9.9199219 L 56.525391 27.826172 C 54.244969 21.927518 51.820706 15.800952 49.123047 9.2402344 A 2.0002 2.0002 0 0 0 47.273438 8 L 24.65625 8 A 2.0002 2.0002 0 0 0 24.154297 8.0664062 A 2.0002 2.0002 0 0 0 23.525391 7.9726562 z M 27.728516 12 L 45.916016 12 C 46.231441 12.77012 46.509164 13.480034 46.818359 14.240234 L 45.199219 16.400391 A 1.0003905 1.0003905 0 1 0 46.800781 17.599609 L 47.693359 16.410156 C 47.836405 16.76428 47.977442 17.114817 48.119141 17.466797 L 46.292969 19.292969 A 1.0001 1.0001 0 1 0 47.707031 20.707031 L 48.929688 19.484375 C 59.273936 45.347871 66.016376 65.476608 71.335938 83.351562 L 63.666016 81.748047 A 1.0001 1.0001 0 0 0 62.980469 79.992188 A 1.0001 1.0001 0 0 0 62.445312 80.167969 L 60.933594 81.175781 L 58.027344 80.568359 L 59.742188 78.669922 A 1.0001 1.0001 0 0 0 59.029297 76.990234 A 1.0001 1.0001 0 0 0 58.257812 77.330078 L 55.962891 79.871094 C 55.582349 78.822015 55.186469 77.777977 54.800781 76.730469 L 58.611328 73.792969 A 1.0001 1.0001 0 0 0 58.009766 71.992188 A 1.0001 1.0001 0 0 0 57.388672 72.207031 L 54.074219 74.763672 C 53.769743 73.944245 53.471608 73.123177 53.164062 72.304688 L 56.048828 69.748047 A 1.0001 1.0001 0 0 0 55.425781 67.990234 A 1.0001 1.0001 0 0 0 54.722656 68.251953 L 52.40625 70.302734 C 52.105003 69.508138 51.796261 68.715608 51.492188 67.921875 L 52.707031 66.707031 A 1.0001 1.0001 0 0 0 51.980469 64.990234 A 1.0001 1.0001 0 0 0 51.292969 65.292969 L 50.707031 65.878906 C 48.510355 60.194857 46.243862 54.531408 43.912109 48.888672 A 2.0002 2.0002 0 0 0 43.412109 47.671875 C 38.443759 35.701573 33.197642 23.816614 27.728516 12 z M 61.162109 12 L 74.380859 12 L 74.345703 13.240234 L 72.292969 15.292969 A 1.0001 1.0001 0 1 0 73.707031 16.707031 L 74.259766 16.154297 L 74.175781 19.064453 L 71.632812 20.070312 A 1.0001 1.0001 0 1 0 72.367188 21.929688 L 74.113281 21.240234 L 72.96875 60.708984 A 1.0001 1.0001 0 0 0 72.023438 59.992188 A 1.0001 1.0001 0 0 0 71.400391 60.199219 L 68.871094 62.095703 C 68.578776 61.213655 68.283478 60.32757 67.982422 59.431641 L 70.707031 56.707031 A 1.0001 1.0001 0 0 0 69.980469 54.990234 A 1.0001 1.0001 0 0 0 69.292969 55.292969 L 67.263672 57.322266 C 67.023115 56.613942 66.777522 55.899041 66.53125 55.181641 L 68.554688 53.832031 A 1.0001 1.0001 0 0 0 67.980469 51.992188 A 1.0001 1.0001 0 0 0 67.445312 52.167969 L 65.863281 53.222656 C 65.588089 52.428818 65.319561 51.649116 65.037109 50.84375 L 66.554688 49.832031 A 1.0001 1.0001 0 0 0 65.980469 47.992188 A 1.0001 1.0001 0 0 0 65.445312 48.167969 L 64.34375 48.902344 C 63.880418 47.593113 63.403282 46.262905 62.919922 44.921875 L 64.554688 43.832031 A 1.0001 1.0001 0 0 0 63.980469 41.992188 A 1.0001 1.0001 0 0 0 63.445312 42.167969 L 62.226562 42.980469 C 62.00928 42.382932 61.793662 41.789614 61.572266 41.185547 L 63.757812 38.654297 A 1.0001 1.0001 0 0 0 63.005859 36.988281 A 1.0001 1.0001 0 0 0 62.242188 37.345703 L 60.773438 39.046875 C 60.568943 38.493909 60.354484 37.923764 60.146484 37.365234 L 60.720703 23.029297 L 61.234375 23.642578 A 1.0001 1.0001 0 1 0 62.765625 22.357422 L 60.839844 20.058594 L 60.947266 17.361328 L 61.292969 17.707031 A 1.0001 1.0001 0 1 0 62.707031 16.292969 L 61.056641 14.642578 L 61.162109 12 z M 25.554688 16.728516 C 26.475685 18.735076 27.389717 20.743481 28.296875 22.753906 L 27.167969 24.445312 A 1.0001 1.0001 0 1 0 28.832031 25.554688 L 29.263672 24.908203 C 30.599705 27.887857 31.918953 30.872608 33.222656 33.861328 L 32.167969 35.445312 A 1.0001 1.0001 0 1 0 33.832031 36.554688 L 34.175781 36.039062 C 34.36526 36.4765 34.561245 36.911969 34.75 37.349609 L 33.087891 41.068359 A 1.0001 1.0001 0 1 0 34.912109 41.884766 L 35.816406 39.859375 C 37.204729 43.105196 38.571292 46.357671 39.917969 49.615234 L 39.917969 80.289062 L 37.451172 80.841797 L 37.980469 78.195312 A 1.0001 1.0001 0 0 0 36.984375 76.986328 A 1.0001 1.0001 0 0 0 36.019531 77.804688 L 35.316406 81.318359 L 33 81.837891 L 33 80 A 1.0001 1.0001 0 0 0 31.984375 78.986328 A 1.0001 1.0001 0 0 0 31 80 L 31 82.285156 L 29 82.732422 L 29 80 A 1.0001 1.0001 0 0 0 27.984375 78.986328 A 1.0001 1.0001 0 0 0 27 80 L 27 83.179688 L 25.554688 83.503906 L 25.554688 73.537109 L 27.316406 72.949219 A 1.0001 1.0001 0 0 0 27.046875 70.996094 A 1.0001 1.0001 0 0 0 26.683594 71.050781 L 25.554688 71.427734 L 25.554688 62.859375 L 26.707031 61.707031 A 1.0001 1.0001 0 0 0 25.980469 59.990234 A 1.0001 1.0001 0 0 0 25.554688 60.099609 L 25.554688 59.166016 L 27.554688 57.832031 A 1.0001 1.0001 0 0 0 26.980469 55.992188 A 1.0001 1.0001 0 0 0 26.445312 56.167969 L 25.554688 56.761719 L 25.554688 50.537109 L 27.316406 49.949219 A 1.0001 1.0001 0 0 0 27.046875 47.996094 A 1.0001 1.0001 0 0 0 26.683594 48.050781 L 25.554688 48.427734 L 25.554688 45.642578 L 28.242188 44.970703 A 1.0001 1.0001 0 0 0 28.025391 42.996094 A 1.0001 1.0001 0 0 0 27.757812 43.029297 L 25.554688 43.580078 L 25.554688 41.689453 L 28.525391 39.849609 A 1.0001 1.0001 0 0 0 28.013672 37.992188 A 1.0001 1.0001 0 0 0 27.474609 38.150391 L 25.554688 39.337891 L 25.554688 34.537109 L 27.316406 33.949219 A 1.0001 1.0001 0 0 0 27.046875 31.996094 A 1.0001 1.0001 0 0 0 26.683594 32.050781 L 25.554688 32.427734 L 25.554688 16.728516 z M 41.439453 26.806641 C 40.887453 26.806641 40.439453 27.254641 40.439453 27.806641 C 40.439453 28.358641 40.887453 28.806641 41.439453 28.806641 C 41.991453 28.806641 42.439453 28.358641 42.439453 27.806641 C 42.439453 27.254641 41.991453 26.806641 41.439453 26.806641 z M 69.550781 30.765625 C 68.998781 30.765625 68.550781 31.213625 68.550781 31.765625 C 68.550781 32.317625 68.998781 32.765625 69.550781 32.765625 C 70.102781 32.765625 70.550781 32.317625 70.550781 31.765625 C 70.550781 31.213625 70.102781 30.765625 69.550781 30.765625 z M 52.832031 41.296875 C 52.280031 41.296875 51.832031 41.744875 51.832031 42.296875 C 51.832031 42.848875 52.280031 43.296875 52.832031 43.296875 C 53.384031 43.296875 53.832031 42.848875 53.832031 42.296875 C 53.832031 41.744875 53.384031 41.296875 52.832031 41.296875 z M 72.951172 61.332031 L 72.830078 65.537109 L 70.458984 66.958984 C 70.155339 66.018791 69.840655 65.061022 69.527344 64.105469 L 72.599609 61.800781 A 1.0001 1.0001 0 0 0 72.951172 61.332031 z M 72.761719 67.908203 L 72.59375 73.689453 C 72.100046 72.104312 71.615827 70.535342 71.095703 68.908203 L 72.761719 67.908203 z"/></svg>